<svg width="32" height="32" viewBox="0 0 32 32" fill="none" xmlns="http://www.w3.org/2000/svg">
<rect width="32" height="32" rx="16" fill="black"/>
<path d="M14.0065 22L13 20.7571C14.22 19.9857 15.1503 19.2571 15.7908 18.5714C16.4619 17.8857 16.9194 17.1143 17.1634 16.2571C17.4379 15.4286 17.5752 14.4143 17.5752 13.2143L19.0392 12.5714C19.0392 13.2857 18.78 13.9 18.2614 14.4143C17.7429 14.9 17.0871 15.1429 16.2941 15.1429C15.5316 15.1429 14.8758 14.9 14.3268 14.4143C13.8083 13.9 13.549 13.2857 13.549 12.5714C13.549 11.8 13.8235 11.1857 14.3725 10.7286C14.9521 10.2429 15.6841 10 16.5686 10C17.6057 10 18.4292 10.3714 19.0392 11.1143C19.6797 11.8571 20 12.8429 20 14.0714C20 15.5857 19.512 16.9714 18.5359 18.2286C17.5904 19.4857 16.0806 20.7429 14.0065 22Z" fill="white"/>
</svg>
